<?xml version="1.0" standalone="no"?>
<!DOCTYPE svg PUBLIC "-//W3C//DTD SVG 20010904//EN"
 "http://www.w3.org/TR/2001/REC-SVG-20010904/DTD/svg10.dtd">
<svg version="1.0" xmlns="http://www.w3.org/2000/svg"
 width="130.000000pt" height="130.000000pt" viewBox="0 0 130.000000 130.000000"
 preserveAspectRatio="xMidYMid meet">
<metadata>
Created by potrace 1.11, written by Peter Selinger 2001-2013
</metadata>
<g transform="translate(0.000000,130.000000) scale(0.100000,-0.100000)"
fill="#000000" stroke="none">
<path d="M178 1222 c-16 -2 -28 -9 -28 -18 0 -12 19 -19 43 -15 4 1 23 -5 42
-13 27 -12 35 -22 41 -53 12 -62 8 -964 -4 -995 -10 -24 -62 -52 -88 -47 -22
4 -34 -2 -34 -16 0 -13 30 -15 210 -15 180 0 210 2 210 15 0 14 -11 19 -37 16
-7 -1 -28 5 -47 13 -28 12 -36 21 -42 52 -7 41 -12 447 -5 477 5 26 67 14 105
-21 34 -31 316 -454 321 -482 4 -20 -19 -35 -60 -39 -8 0 -15 -8 -15 -16 0
-13 27 -15 185 -15 209 0 226 7 131 54 -52 25 -63 39 -259 315 -113 158 -207
292 -209 298 -5 16 293 393 334 423 20 15 57 33 82 40 48 13 56 32 17 40 -13
3 -88 4 -166 2 -129 -3 -142 -5 -138 -20 3 -11 15 -17 35 -18 41 -2 70 -36 62
-73 -9 -40 -51 -104 -163 -247 -111 -143 -169 -188 -233 -182 l-32 3 0 200 c1
110 4 217 8 237 8 46 38 64 109 67 9 1 17 8 17 16 0 12 -31 15 -182 17 -101 2
-195 2 -210 0z"/>
</g>
</svg>
